<svg xmlns="http://www.w3.org/2000/svg" viewBox="0 0 2499.1 325.62"><defs><style>.cls-1{fill:#fff;}</style></defs><title>Asset 1</title><g id="Layer_2" data-name="Layer 2"><g id="Layer_1-2" data-name="Layer 1"><g id="TESLA"><path class="cls-1" d="M2135.81,129.17V325.62h62.79v-131h229.64v131H2491V129.17H2135.81m55.61-63.69h242.2C2467.71,59.2,2491.93,28.7,2499.1,0H2125.94c7.18,28.7,32.29,58.31,65.48,65.48M1944.74,325.62c31.4-13.46,48.44-36.78,55.62-63.69H1717.8V.9h-63.69V325.62h290.63m-761.57-261h224.26c34.08-9.87,61.89-35.89,69.07-63.69H1121.28v192h290.63v67.28H1184.07c-35.88,9.86-66.38,34.08-81.63,65.48H1474.7V129.17H1184.07l-.9-64.58m-552.56.89H872.8C906.89,59.2,932,28.7,938.28,0h-374c7.17,28.7,32.29,58.31,66.38,65.48m0,128.28H872.8c34.09-6.28,59.21-36.78,65.48-65.49h-374c7.17,28.71,32.29,58.31,66.38,65.49m0,131.86H872.8c34.09-6.28,59.21-36.78,65.48-65.48h-374c7.17,28.7,32.29,59.2,66.38,65.48"/><path class="cls-1" d="M0,.9C7.18,29.6,32.29,58.31,65.48,65.48H167.74l5.39,1.8V324.72h63.68V67.28l5.39-1.8H344.46c34.08-9,58.3-35.88,65.48-64.58V0L0,.9"/></g></g></g></svg>